<svg width="163" height="230" viewBox="0 0 163 230" fill="none" xmlns="http://www.w3.org/2000/svg">
<path d="M23.048 155.886V157.425H22.5903C21.7998 157.425 21.0511 157.217 20.3854 156.843C19.7198 156.469 19.1788 155.928 18.8044 155.221C18.5132 155.304 17.8891 155.387 16.9323 155.512L16.0588 155.637C15.9755 155.637 15.8507 155.678 15.6427 155.678C14.9355 155.678 14.2282 155.428 13.5626 154.929C12.8969 154.43 12.4392 153.806 12.2312 153.099C12.1064 152.683 12.0232 152.308 12.0232 151.934C12.0232 151.143 12.2729 150.436 12.7305 149.77C13.1882 149.105 13.8121 148.647 14.5194 148.397L18.1389 147.233V146.068H19.5534V152.891C19.5534 153.723 19.8446 154.388 20.4271 154.971C21.0095 155.553 21.7166 155.845 22.5486 155.845H23.048V155.886ZM18.2636 153.764C18.222 153.473 18.1803 153.224 18.1803 152.932V148.772L15.0187 149.854C14.5194 150.02 14.1449 150.27 13.8537 150.686C13.5625 151.06 13.4377 151.476 13.4377 151.934C13.4377 152.183 13.4793 152.391 13.5209 152.558C13.6457 153.015 13.8953 153.39 14.3114 153.681C14.7274 153.972 15.1435 154.139 15.6427 154.139C15.7675 154.139 15.8922 154.139 15.9338 154.097C16.3915 154.014 17.1403 153.889 18.2636 153.764Z" fill="white"/>
<path d="M31.6182 155.886V157.426H23.048V155.886H31.6182Z" fill="white"/>
<path d="M35.6951 155.886V157.426H31.3685V155.886H35.6951Z" fill="white"/>
<path d="M47.9263 157.426C45.971 157.426 44.5566 157.384 43.6413 157.259C42.7261 157.176 42.0189 156.885 41.4364 156.469C40.5212 156.76 39.6059 157.01 38.6906 157.176C37.7338 157.342 36.9016 157.426 36.1112 157.426H35.6951V155.886H36.1112C37.6089 155.886 39.0649 155.72 40.4378 155.387L37.2762 151.144L37.6505 149.937L43.35 149.105C43.4332 149.105 43.558 149.063 43.766 149.063C44.2653 149.063 44.7231 149.188 45.1807 149.438C45.5967 149.687 45.9295 150.062 46.1791 150.478C46.4288 150.894 46.5535 151.393 46.5535 151.893C46.5535 152.267 46.4703 152.683 46.3039 153.016C45.9294 153.973 44.8894 154.846 43.2669 155.678C43.683 155.761 44.2238 155.803 44.8894 155.803C45.5551 155.803 46.5536 155.845 47.8849 155.845V157.426H47.9263ZM41.9772 154.93C42.8093 154.597 43.5166 154.222 44.099 153.806C44.6398 153.349 45.0141 152.849 45.2221 152.309C45.3054 152.101 45.3471 151.934 45.3471 151.768C45.3471 151.393 45.1806 151.06 44.8894 150.769C44.5982 150.52 44.2654 150.395 43.8493 150.478L39.065 151.144L41.9772 154.93Z" fill="white"/>
<path d="M57.7864 155.886V157.426H47.4273V155.886H57.7864Z" fill="white"/>
<path d="M74.0948 153.806C74.0948 154.597 73.9282 155.262 73.5538 155.803C73.1794 156.344 72.7218 156.76 72.1393 157.01C71.5569 157.259 70.9329 157.426 70.3089 157.426C69.6848 157.426 69.144 157.301 68.6447 157.051C68.1455 156.802 67.7295 156.469 67.4383 156.011C66.7727 156.927 65.8158 157.426 64.4845 157.426C63.8604 157.426 63.2779 157.301 62.7787 157.051C62.2795 156.802 61.9051 156.469 61.5723 156.011C60.9066 156.968 59.9497 157.426 58.5768 157.426H57.4536V155.886H58.5768C60.0745 155.886 60.8234 155.221 60.9066 153.931V153.723V150.811H62.1963V153.723V153.931C62.1963 154.514 62.4043 155.013 62.7787 155.346C63.1531 155.72 63.7355 155.886 64.4012 155.886C65.9405 155.886 66.731 155.179 66.731 153.723V150.811H68.0623V153.723V153.931C68.0623 154.514 68.2703 155.013 68.6447 155.346C69.0192 155.72 69.56 155.886 70.2672 155.886C70.9329 155.886 71.5153 155.72 71.973 155.387C72.4306 155.054 72.6387 154.513 72.6387 153.806C72.6387 153.473 72.5555 153.099 72.4306 152.558L71.4737 149.022L72.805 148.647L73.7618 152.184C74.0114 152.766 74.0948 153.307 74.0948 153.806Z" fill="white"/>
<path d="M86.4091 157.426H85.1195V157.509C85.1611 157.925 85.161 158.216 85.161 158.383C85.161 159.464 84.9114 160.296 84.3706 160.92C83.8297 161.544 83.0808 162.002 82.0408 162.335C81.0007 162.668 79.503 163.084 77.5061 163.5L77.215 162.002C79.1287 161.628 80.5015 161.295 81.292 161.045C82.124 160.796 82.7064 160.504 83.1225 160.088C83.5385 159.672 83.7465 159.131 83.7465 158.383C83.7465 158.258 83.7465 158.008 83.7049 157.717L83.6634 157.467H80.3766C79.2118 157.467 78.2967 157.135 77.631 156.427C76.9654 155.72 76.6324 154.763 76.6324 153.557C76.6324 152.808 76.7989 152.101 77.1317 151.435C77.4645 150.769 77.9221 150.229 78.5045 149.813C79.087 149.396 79.7942 149.188 80.5847 149.188C81.6663 149.188 82.6232 149.604 83.3305 150.478C84.0793 151.31 84.5371 152.433 84.6619 153.848L84.9115 156.011H86.3676V157.426H86.4091ZM83.4969 155.886L83.2888 153.931C83.164 152.891 82.8729 152.101 82.3737 151.518C81.8745 150.936 81.2505 150.645 80.5432 150.645C79.7528 150.645 79.1286 150.936 78.7125 151.477C78.2549 152.059 78.047 152.725 78.047 153.473C78.047 155.054 78.8373 155.845 80.3766 155.845H83.4969V155.886Z" fill="white"/>
<path d="M96.7267 155.886V157.426H86.1596V155.886H96.7267Z" fill="white"/>
<path d="M97.8915 155.886C98.6819 155.886 99.3477 155.72 99.8469 155.387C100.346 155.054 100.596 154.513 100.596 153.723C100.596 153.348 100.554 152.974 100.429 152.558L99.514 149.022L100.845 148.647L101.802 152.225C101.927 152.808 102.01 153.307 102.01 153.765C102.01 154.929 101.594 155.845 100.804 156.427C99.9716 157.051 99.0147 157.342 97.8499 157.342H94.4385V155.803H97.8915V155.886ZM96.3523 145.444L97.5588 144.237L98.8068 145.444L97.5588 146.692L96.3523 145.444ZM100.221 145.444L101.428 144.237L102.676 145.444L101.428 146.692L100.221 145.444Z" fill="white"/>
<path d="M118.568 151.393C118.901 152.017 119.067 152.725 119.067 153.515C119.067 154.222 118.901 154.888 118.568 155.47C118.235 156.053 117.736 156.552 117.154 156.885C116.571 157.259 115.906 157.426 115.24 157.426C114.533 157.426 113.909 157.259 113.326 156.885C112.744 156.51 112.286 156.053 111.912 155.47C111.579 154.888 111.412 154.222 111.412 153.515C111.412 152.891 111.579 152.267 111.87 151.643C112.161 151.019 112.619 150.436 113.201 149.895L114.366 148.772L113.493 147.899L114.45 146.817L117.029 149.355C117.736 150.104 118.235 150.769 118.568 151.393ZM116.987 155.221C117.445 154.763 117.694 154.181 117.694 153.515C117.694 153.016 117.57 152.558 117.362 152.142C117.154 151.726 116.696 151.144 116.03 150.52L115.282 149.771L114.158 150.894C113.201 151.851 112.744 152.725 112.744 153.557C112.744 154.222 112.993 154.805 113.451 155.262C113.95 155.72 114.533 155.97 115.198 155.97C115.906 155.928 116.488 155.678 116.987 155.221Z" fill="white"/>
<path d="M130.508 158.341C130.508 159.423 130.259 160.296 129.718 160.879C129.177 161.503 128.428 161.96 127.388 162.335C126.348 162.709 124.85 163.084 122.853 163.5L122.562 162.002C124.476 161.627 125.849 161.295 126.681 161.045C127.513 160.795 128.137 160.462 128.511 160.046C128.886 159.63 129.094 159.048 129.094 158.258C129.094 158.008 129.094 157.842 129.052 157.675L128.969 157.093C127.929 157.301 126.847 157.384 125.724 157.384C124.6 157.384 123.727 157.009 123.02 156.302C122.312 155.553 121.979 154.638 121.979 153.473C121.979 152.724 122.146 152.017 122.479 151.351C122.812 150.686 123.269 150.145 123.852 149.729C124.434 149.313 125.141 149.105 125.932 149.105C127.055 149.105 127.97 149.521 128.719 150.395C129.468 151.227 129.926 152.35 130.092 153.765L130.508 157.55C130.466 157.925 130.508 158.174 130.508 158.341ZM128.844 155.553L128.678 153.931C128.553 152.891 128.262 152.059 127.762 151.476C127.263 150.894 126.639 150.603 125.89 150.603C125.1 150.603 124.517 150.894 124.06 151.476C123.602 152.059 123.394 152.724 123.394 153.473C123.394 154.181 123.602 154.763 124.018 155.221C124.434 155.637 125.017 155.886 125.724 155.886C126.722 155.886 127.721 155.761 128.844 155.553Z" fill="white"/>
<path d="M140.784 155.886V157.426H140.618C140.035 157.426 139.578 157.343 139.203 157.176L139.245 157.509C139.286 157.842 139.328 158.133 139.328 158.424C139.328 159.464 139.078 160.296 138.538 160.962C137.997 161.586 137.331 162.085 136.499 162.418C135.667 162.751 134.585 163.125 133.212 163.5L132.838 162.002L133.462 161.836C134.544 161.545 135.376 161.295 135.916 161.087C136.499 160.879 136.957 160.546 137.331 160.088C137.706 159.672 137.872 159.09 137.872 158.341C137.872 158.216 137.872 158.008 137.83 157.717L136.873 150.894L138.288 150.686L138.662 153.515C138.787 154.181 138.912 154.68 139.037 155.013C139.161 155.346 139.37 155.554 139.578 155.678C139.786 155.803 140.118 155.886 140.576 155.886H140.784Z" fill="white"/>
<path d="M147.898 152.225C148.314 152.891 148.522 153.598 148.522 154.305C148.522 154.763 148.439 155.179 148.273 155.553C148.106 155.928 147.857 156.302 147.524 156.552C146.983 157.134 146.234 157.384 145.319 157.384H140.534V155.845H145.319C145.735 155.845 146.068 155.761 146.317 155.553C146.567 155.387 146.733 155.179 146.858 154.929C146.983 154.68 147.066 154.43 147.066 154.139C147.066 153.764 146.983 153.432 146.775 153.14L141.491 145.652L141.783 144.487L150.353 141.325L150.852 142.781L143.239 145.569L147.898 152.225ZM148.148 139.703L148.397 140.368L142.656 142.448L142.407 141.783L148.148 139.703Z" fill="white"/>
<path d="M17.6395 185.05C16.7243 185.008 16.0171 184.966 15.601 184.883C15.185 184.8 14.769 184.675 14.3946 184.509C13.6874 184.218 13.188 183.802 12.8552 183.219C12.5224 182.678 12.3559 182.013 12.3559 181.222C12.3559 180.765 12.4391 180.265 12.5639 179.725L13.4376 176.396L14.769 176.812L13.8953 180.182C13.7705 180.557 13.7289 180.931 13.7289 181.305C13.7289 182.137 14.1449 182.72 14.977 183.094C15.2682 183.219 15.5593 183.302 15.8921 183.386C16.225 183.469 16.849 183.51 17.7643 183.552C18.6795 183.593 20.0109 183.594 21.7998 183.594V185.133C19.9693 185.133 18.5548 185.091 17.6395 185.05ZM18.638 176.271L19.8444 175.065L21.0925 176.271L19.8444 177.519L18.638 176.271ZM25.8768 183.51C26.7505 183.469 27.3747 183.427 27.7075 183.344C28.0403 183.261 28.3314 183.178 28.6227 183.053C29.0803 182.845 29.3716 182.637 29.5796 182.345C29.7877 182.054 29.8707 181.68 29.8707 181.264C29.8707 180.931 29.7875 180.556 29.6627 180.016L28.7476 176.729L30.0788 176.355L30.9941 179.641C31.1605 180.224 31.2438 180.764 31.2438 181.264C31.2438 182.013 31.0772 182.678 30.7028 183.219C30.3284 183.76 29.8293 184.176 29.1636 184.467C28.7892 184.634 28.373 184.758 27.957 184.842C27.5409 184.925 26.8754 184.966 25.9601 185.008C25.0449 185.05 23.6304 185.05 21.7998 185.05V183.51C23.6304 183.594 25.0032 183.552 25.8768 183.51ZM22.5486 176.271L23.7552 175.065L25.0033 176.271L23.7552 177.519L22.5486 176.271Z" fill="white"/>
<path d="M35.9448 184.717C35.4039 184.426 34.9879 183.968 34.7383 183.344C34.4887 182.72 34.3223 181.805 34.2807 180.682L33.8646 169.823L35.2791 169.782L35.6951 180.682C35.7367 181.514 35.82 182.138 35.9448 182.554C36.0696 182.97 36.3193 183.219 36.6521 183.386C36.9849 183.552 37.5257 183.635 38.2746 183.635H38.5242V185.175H38.2746C37.2761 185.133 36.4856 184.967 35.9448 184.717Z" fill="white"/>
<path d="M44.3487 183.594V185.133H38.233V183.594H44.3487Z" fill="white"/>
<path d="M51.0466 184.842L50.5475 184.925C49.3826 185.05 47.1777 185.091 43.9326 185.133H43.683V183.594H43.9326L47.3023 183.51C46.8447 182.928 46.512 182.262 46.3872 181.513C46.3456 181.264 46.3039 181.014 46.3039 180.765C46.3039 179.766 46.5952 178.893 47.2192 178.102C47.8433 177.353 48.6336 176.895 49.6321 176.687C49.8401 176.646 50.0483 176.646 50.1731 176.646C51.0051 176.646 52.0867 176.812 53.418 177.187L53.0436 178.684C51.5459 178.31 50.5059 178.144 49.9234 178.227C49.2578 178.31 48.717 178.601 48.3009 179.059C47.8849 179.517 47.6769 180.099 47.6769 180.723C47.6769 181.472 47.9264 182.096 48.4257 182.595C48.9249 183.094 49.5489 183.344 50.2562 183.344C50.381 183.344 50.5475 183.344 50.7555 183.302L54.7908 182.553L55.0821 184.051L51.0466 184.842Z" fill="white"/>
<path d="M58.2441 182.18L56.4136 170.822L57.7864 170.531L59.6169 181.888L58.2441 182.18ZM69.5599 183.594V185.133H69.1025C68.52 185.133 67.979 185.009 67.4798 184.759C66.9805 184.509 66.5647 184.177 66.1903 183.677C65.5246 184.634 64.4845 185.133 63.07 185.133H57.412V183.594H63.07C63.9853 183.594 64.6093 183.386 64.9422 182.97C65.275 182.554 65.4412 182.055 65.3996 181.472L64.9422 169.782L66.315 169.699L66.7726 181.223C66.8143 182.055 67.0221 182.637 67.4798 183.012C67.9374 183.386 68.4368 183.552 69.1025 183.552H69.5599V183.594Z" fill="white"/>
<path d="M79.5446 177.354C80.1687 177.728 80.6679 178.269 81.0424 178.893C81.4168 179.559 81.5833 180.307 81.5833 181.098C81.5833 181.805 81.3751 182.429 81.0007 183.053C80.6263 183.677 80.1272 184.177 79.5032 184.551C78.8791 184.925 78.2133 185.092 77.4645 185.092H68.1038V183.552H70.392L71.141 182.554L70.6416 169.782L72.0561 169.699L72.4721 180.682C73.1378 179.767 73.6786 179.059 74.1362 178.519C74.5939 177.978 75.1348 177.562 75.6756 177.271C76.2165 176.979 76.8405 176.813 77.5061 176.813C78.2134 176.813 78.9206 176.979 79.5446 177.354ZM78.7542 183.22C79.1702 182.97 79.503 182.679 79.7526 182.304C80.0022 181.93 80.1272 181.514 80.1272 181.14C80.1272 180.349 79.8775 179.684 79.3782 179.143C78.879 178.602 78.2133 178.352 77.4645 178.352C76.9652 178.352 76.466 178.477 76.05 178.768C75.634 179.059 75.218 179.434 74.8436 179.891C74.4691 180.391 73.9282 181.098 73.3042 182.013L72.181 183.552H77.5061C77.9221 183.594 78.3382 183.469 78.7542 183.22Z" fill="white"/>
<path d="M87.6571 169.699L88.2397 185.092L86.8251 185.175L86.2427 169.782L87.6571 169.699Z" fill="white"/>
<path d="M99.5556 190.957C97.8083 190.957 96.477 190.417 95.4786 189.293C94.4801 188.17 93.9808 186.672 93.9808 184.717C93.9808 183.303 94.2721 181.763 94.8545 180.057L96.1857 180.557C95.6449 182.096 95.3536 183.511 95.3536 184.759C95.3536 186.215 95.7281 187.38 96.4354 188.17C97.1426 189.002 98.1826 189.376 99.5139 189.376C100.013 189.376 100.596 189.293 101.22 189.168C102.634 188.836 103.799 188.42 104.631 187.962C105.463 187.504 105.879 187.088 105.879 186.714C105.879 186.547 105.796 186.381 105.588 186.256C105.38 186.131 105.047 186.007 104.59 185.84C104.09 185.674 103.508 185.508 102.884 185.341C101.885 185.05 101.137 184.675 100.637 184.259C100.138 183.843 99.8885 183.261 99.8885 182.471C99.8885 181.971 99.9716 181.472 100.138 180.89C100.304 180.307 100.596 179.725 101.012 179.101C101.428 178.477 101.927 177.936 102.593 177.478C103.258 177.021 104.007 176.812 104.839 176.812C105.255 176.812 105.671 176.854 106.087 176.979L107.626 177.395L107.252 178.893L105.713 178.477C105.38 178.393 105.047 178.352 104.756 178.352C103.799 178.352 103.05 178.685 102.509 179.392C101.969 180.099 101.636 180.723 101.428 181.347C101.345 181.722 101.303 182.013 101.303 182.263C101.303 182.762 101.469 183.136 101.802 183.344C102.135 183.552 102.676 183.76 103.508 184.01C104.59 184.343 105.338 184.592 105.796 184.759C106.212 184.925 106.586 185.133 106.836 185.383C107.086 185.632 107.252 185.965 107.294 186.423L107.335 186.714C107.335 187.588 106.836 188.378 105.796 189.085C104.798 189.793 103.383 190.375 101.553 190.791C100.887 190.874 100.221 190.957 99.5556 190.957Z" fill="white"/>
<path d="M109.374 189.543C110.456 189.252 111.288 189.002 111.828 188.794C112.411 188.586 112.868 188.253 113.243 187.795C113.617 187.379 113.784 186.797 113.784 186.048C113.784 185.923 113.784 185.715 113.742 185.424L112.785 178.601L114.2 178.393L115.115 185.216C115.157 185.549 115.198 185.84 115.198 186.131C115.198 187.171 114.949 188.003 114.408 188.669C113.867 189.293 113.201 189.792 112.369 190.125C111.537 190.458 110.455 190.832 109.083 191.207L108.708 189.709L109.374 189.543Z" fill="white"/>
<path d="M126.223 186.048C126.223 187.13 125.974 188.004 125.433 188.586C124.892 189.21 124.143 189.668 123.103 190.042C122.063 190.417 120.565 190.791 118.568 191.207L118.277 189.709C120.191 189.335 121.564 189.002 122.396 188.752C123.228 188.503 123.852 188.17 124.226 187.754C124.601 187.338 124.809 186.756 124.809 185.965C124.809 185.716 124.809 185.549 124.767 185.383L124.684 184.8C123.644 185.008 122.562 185.091 121.439 185.091C120.316 185.091 119.442 184.717 118.735 184.01C118.027 183.261 117.695 182.346 117.695 181.181C117.695 180.432 117.861 179.725 118.194 179.059C118.527 178.393 118.984 177.853 119.567 177.437C120.149 177.021 120.856 176.812 121.647 176.812C122.77 176.812 123.685 177.229 124.434 178.102C125.183 178.976 125.641 180.057 125.807 181.472L126.223 185.258C126.223 185.632 126.223 185.882 126.223 186.048ZM124.601 183.261L124.434 181.638C124.309 180.598 124.018 179.808 123.519 179.184C123.02 178.601 122.396 178.31 121.647 178.31C120.856 178.31 120.274 178.601 119.816 179.184C119.359 179.766 119.151 180.432 119.151 181.181C119.151 181.888 119.359 182.47 119.775 182.928C120.191 183.344 120.773 183.594 121.48 183.594C122.437 183.594 123.477 183.469 124.601 183.261Z" fill="white"/>
<path d="M131.049 184.717C130.508 184.426 130.092 183.968 129.843 183.344C129.593 182.72 129.427 181.805 129.385 180.682L128.969 169.823L130.383 169.782L130.799 180.682C130.841 181.514 130.924 182.138 131.049 182.554C131.174 182.97 131.423 183.219 131.756 183.386C132.089 183.552 132.63 183.635 133.379 183.635H133.628V185.175H133.379C132.38 185.133 131.632 184.967 131.049 184.717Z" fill="white"/>
<path d="M139.203 183.095C139.536 183.427 140.118 183.594 140.909 183.594V185.133C139.536 185.133 138.579 184.717 137.955 183.843C137.622 184.259 137.206 184.55 136.665 184.8C136.166 185.008 135.542 185.133 134.835 185.133H133.337V183.594H134.835C136.499 183.594 137.289 182.928 137.165 181.555V181.514L136.915 178.601L138.288 178.477L138.538 181.389V181.43C138.621 182.221 138.829 182.762 139.203 183.095ZM135.126 174.899L136.499 173.526L137.872 174.899L136.499 176.272L135.126 174.899Z" fill="white"/>
<path d="M150.269 182.096C150.269 182.845 150.145 183.427 149.853 183.885C149.604 184.301 149.105 184.634 148.439 184.842C147.773 185.05 146.775 185.133 145.527 185.133H140.618V183.594H145.527C146.484 183.594 147.191 183.552 147.649 183.469C148.106 183.386 148.439 183.219 148.647 183.011C148.813 182.803 148.938 182.471 148.938 182.013C148.938 181.888 148.938 181.68 148.897 181.347C148.023 181.514 146.983 181.597 145.735 181.597C144.653 181.597 143.78 181.264 143.114 180.598C142.448 179.933 142.115 179.059 142.115 177.936C142.115 177.145 142.24 176.438 142.573 175.772C142.864 175.107 143.322 174.566 143.904 174.15C144.487 173.734 145.194 173.526 146.026 173.526C147.108 173.526 147.981 173.942 148.73 174.774C149.479 175.606 149.895 176.688 150.02 178.061L150.269 180.973C150.269 181.306 150.269 181.638 150.269 182.096ZM144.029 179.558C144.445 179.974 145.028 180.224 145.735 180.224C146.858 180.224 147.857 180.141 148.772 179.933L148.647 178.269C148.522 177.27 148.231 176.48 147.732 175.897C147.233 175.315 146.608 175.023 145.901 175.023C145.111 175.023 144.528 175.315 144.071 175.856C143.613 176.438 143.405 177.104 143.405 177.853C143.405 178.56 143.613 179.142 144.029 179.558ZM145.901 171.529L144.487 170.198L145.901 168.825L147.233 170.198L145.901 171.529Z" fill="white"/>
<path d="M24.1714 228.941C22.5489 229.357 21.0511 229.44 19.6782 229.232C18.3469 229.024 17.1403 228.65 16.1003 228.026C15.0602 227.402 14.2283 226.569 13.5627 225.488C12.897 224.406 12.4392 223.158 12.148 221.827C11.8568 220.454 11.8152 218.956 11.9816 217.25C12.148 215.545 12.564 213.797 13.1881 211.925L17.6813 213.714C16.3916 217.458 16.2252 220.204 17.2236 222.035C18.2221 223.865 20.1775 224.406 23.0897 223.74C25.461 223.2 26.9587 222.742 27.5827 222.284C28.2067 221.827 28.4148 220.995 28.29 219.746L26.917 210.635L31.5766 209.887C32.3255 214.879 32.783 217.916 32.9494 219.039C33.3655 221.91 32.8247 224.115 31.4102 225.571C29.9541 227.027 27.5412 228.15 24.1714 228.941ZM21.8832 212.841L18.555 209.512L21.8832 206.184L25.2115 209.512L21.8832 212.841Z" fill="white"/>
<path d="M43.3501 221.12C40.9371 221.12 39.19 220.537 38.1083 219.33C37.0682 218.166 36.4857 216.127 36.3609 213.298L35.7785 198.03L40.5628 197.78L41.1452 213.298C41.1452 214.505 41.27 215.212 41.478 215.42C41.686 215.669 42.31 215.753 43.3501 215.753H43.6831V221.078H43.3501V221.12Z" fill="white"/>
<path d="M56.663 215.794V221.12C54.9573 221.12 53.5844 220.704 52.5027 219.871C51.2962 220.704 49.8818 221.12 48.176 221.12H42.0605V215.794H48.176C48.9665 215.794 49.5075 215.711 49.7571 215.545C50.0067 215.378 50.1314 215.087 50.0898 214.629L49.7154 210.552L54.4581 210.053L54.8325 214.13C54.8325 214.255 54.8326 214.338 54.8742 214.38C54.9158 214.962 55.0406 215.378 55.2902 215.503C55.4566 215.711 55.9557 215.794 56.663 215.794ZM48.717 204.603L45.7632 207.515L42.8926 204.603L45.7632 201.691L48.717 204.603ZM55.6229 204.603L52.7107 207.515L49.7985 204.603L52.7107 201.691L55.6229 204.603Z" fill="white"/>
<path d="M79.8359 211.801C80.5847 214.422 80.2936 216.626 79.0871 218.415C77.839 220.204 76.0084 221.12 73.5954 221.12C72.0145 221.12 70.6832 220.62 69.6015 219.663C68.5198 220.62 67.1887 221.12 65.5662 221.12C64.0269 221.12 62.737 220.62 61.6553 219.58C60.532 220.579 59.1592 221.12 57.5367 221.12H55.9975V215.794H57.5367C58.3271 215.794 58.8264 215.67 59.0344 215.462C59.284 215.254 59.3672 214.879 59.3672 214.38V210.261H63.8604V214.38C63.8604 215.295 64.4429 215.753 65.5662 215.753C66.315 215.753 66.8141 215.628 67.0637 215.42C67.3133 215.212 67.4383 214.879 67.4383 214.421V214.338V210.22H71.8897V214.338V214.463C71.8897 214.921 72.0144 215.212 72.2641 215.42C72.5137 215.628 72.9713 215.711 73.5538 215.711C74.4275 215.711 74.9683 215.545 75.2595 215.17C75.5092 214.796 75.5092 214.13 75.2595 213.09L73.9282 208.139L78.5045 206.767L79.8359 211.801Z" fill="white"/>
<path d="M83.3722 215.794H92.6912C93.8561 215.794 94.2721 215.295 93.8976 214.338C93.5232 213.381 92.9409 212.175 92.1088 210.718C91.2767 209.262 90.5279 208.056 89.8623 207.099L88.8639 205.643L92.6912 202.481C93.024 202.939 93.4817 203.563 94.0226 204.353C94.5634 205.144 95.3538 206.475 96.4355 208.347C97.5171 210.219 98.1827 211.842 98.474 213.09C99.0148 215.336 98.682 217.208 97.4755 218.789C96.269 220.329 94.4386 221.119 91.9841 221.119H84.2042" fill="white"/>
<path d="M99.514 229.564L98.2659 224.406C101.012 223.615 102.759 223.033 103.466 222.575C104.173 222.118 104.465 221.286 104.298 220.079L102.967 210.552L107.627 209.845L108.958 219.455C109.166 220.953 109.124 222.201 108.833 223.282C108.542 224.364 107.959 225.279 107.127 226.07C106.295 226.86 105.255 227.484 104.09 228.025C102.925 228.524 101.386 229.065 99.514 229.564Z" fill="white"/>
<path d="M113.285 221.286L112.369 198.03L117.112 197.78L118.027 221.036L113.285 221.286Z" fill="white"/>
<path d="M129.801 215.794H129.967V221.119H129.801C129.551 221.119 129.343 221.119 129.219 221.078C129.26 223.366 128.47 225.113 126.972 226.32C125.433 227.526 123.02 228.608 119.65 229.565L118.402 224.406C121.148 223.615 122.895 223.033 123.602 222.575C124.309 222.118 124.601 221.286 124.434 220.079L123.103 210.552L127.762 209.845L127.929 210.927C128.22 213.09 128.47 214.421 128.678 214.921C128.927 215.503 129.302 215.794 129.801 215.794ZM128.511 204.228L125.183 207.557L121.896 204.228L125.183 200.942L128.511 204.228Z" fill="white"/>
<path d="M147.232 209.138C148.813 209.97 149.937 211.259 150.519 213.007C151.101 214.796 151.018 216.46 150.269 218.124C149.479 219.788 148.273 220.953 146.65 221.535C145.028 222.159 143.405 222.076 141.824 221.327L138.413 219.746C136.416 220.662 134.211 221.119 131.798 221.119H129.676V215.794H131.798H132.006C131.34 214.796 130.924 213.672 130.799 212.466C130.675 211.218 130.924 210.011 131.465 208.847C132.089 207.474 133.087 206.392 134.336 205.685L135.542 202.98L147.232 209.138ZM139.203 212.716C139.411 212.258 139.411 211.842 139.286 211.384C139.12 210.927 138.829 210.594 138.371 210.344C137.83 210.095 137.373 210.011 136.915 210.095C136.457 210.219 136.166 210.469 135.958 210.843C135.708 211.259 135.667 211.717 135.792 212.133C135.916 212.591 136.249 212.924 136.748 213.173L138.371 214.005C138.662 213.756 138.954 213.298 139.203 212.716ZM146.068 216.085C146.276 215.711 146.276 215.337 146.109 214.879C145.943 214.421 145.61 214.047 145.111 213.797L143.946 213.215C143.821 213.839 143.655 214.421 143.405 214.921C143.197 215.378 142.947 215.836 142.656 216.293L143.696 216.834C144.112 217.042 144.57 217.084 145.028 216.959C145.527 216.793 145.86 216.501 146.068 216.085Z" fill="white"/>
<path d="M0.915141 139.703H0V229.357H0.915141V139.703Z" fill="#ACACAC"/>
<path d="M163 139.703H162.085V229.357H163V139.703Z" fill="#ACACAC"/>
<path d="M128.054 0H96.893V32.0342H129.343V65.7742H31.2852V32.0342H63.9851V0H34.1974C15.4345 0 0.166321 15.2682 0.166321 34.0311V97.7251H128.095C146.858 97.7251 162.126 82.4569 162.126 63.694V34.0311C162.085 15.2682 146.816 0 128.054 0Z" fill="white"/>
<path d="M63.9435 65.7742H31.2438V32.0342H63.9435V0H34.156C15.3931 0 0.124695 15.2682 0.124695 34.0311V97.7251H63.9851V65.7742H63.9435Z" fill="url(#paint0_linear_84_688)"/>
<path d="M63.9435 0V131.215L96.8931 97.7668V32.0342L63.9435 0Z" fill="url(#paint1_linear_84_688)"/>
<defs>
<linearGradient id="paint0_linear_84_688" x1="0.116915" y1="48.8738" x2="61.5293" y2="48.8738" gradientUnits="userSpaceOnUse">
<stop stop-color="#DADADA"/>
<stop offset="0.010525" stop-color="#FFFCF9"/>
<stop offset="0.1816" stop-color="#F8F6F3"/>
<stop offset="0.4268" stop-color="#E5E3E2"/>
<stop offset="0.7153" stop-color="#C6C6C7"/>
<stop offset="1" stop-color="#A1A2A6"/>
</linearGradient>
<linearGradient id="paint1_linear_84_688" x1="80.4199" y1="-0.00220495" x2="80.4199" y2="131.215" gradientUnits="userSpaceOnUse">
<stop stop-color="#DADADA"/>
<stop offset="0.010525" stop-color="#FFFCF9"/>
<stop offset="1" stop-color="white"/>
</linearGradient>
</defs>
</svg>
