<?xml version="1.0" standalone="no"?>
<!DOCTYPE svg PUBLIC "-//W3C//DTD SVG 20010904//EN"
 "http://www.w3.org/TR/2001/REC-SVG-20010904/DTD/svg10.dtd">
<svg version="1.0" xmlns="http://www.w3.org/2000/svg"
 width="512.000000pt" height="512.000000pt" viewBox="0 0 512.000000 512.000000"
 preserveAspectRatio="xMidYMid meet">
<metadata>
Created by potrace 1.11, written by Peter Selinger 2001-2013
</metadata>
<g transform="translate(0.000000,512.000000) scale(0.100000,-0.100000)"
fill="#000000" stroke="none">
<path d="M821 4589 c-397 -87 -688 -366 -794 -763 -22 -81 -22 -83 -22 -1186
l0 -1105 1020 0 1020 0 2 -505 c1 -278 2 -508 2 -512 1 -3 231 224 512 505
l511 511 552 2 c579 1 619 3 731 33 180 47 329 134 465 270 137 138 222 285
272 473 21 81 22 100 25 733 3 713 2 725 -57 888 -125 341 -403 579 -765 656
-82 18 -140 19 -657 20 l-568 2 0 -512 0 -511 -511 511 -511 512 -571 -2
c-512 -2 -581 -4 -656 -20z m1186 -1008 l41 -1 -1 -507 -2 -508 -510 -3 -510
-2 0 505 c0 371 3 508 12 513 8 5 664 7 970 3z m2081 -6 c4 -4 7 -234 7 -511
l0 -504 -512 0 -511 0 0 508 1 507 31 5 c48 8 976 3 984 -5z"/>
</g>
</svg>
